<svg width="1120.000000" height="702.000000" viewBox="0 0 1120 702" fill="none" xmlns="http://www.w3.org/2000/svg" xmlns:xlink="http://www.w3.org/1999/xlink">
	<desc>
			Created with Pixso.
	</desc>
	<defs>
		<clipPath id="clip0_232">
			<rect id="illustration" width="1016.099976" height="452.459076" transform="translate(52.000000 228.000000)" fill="white" fill-opacity="0"/>
		</clipPath>
	</defs>
	<path id="bg color" d="M0 0L1120 0L1120 702L0 702L0 0Z" fill="#FFE0E2" fill-opacity="1.000000" fill-rule="nonzero"/>
	<path id="confity" d="M682.688 22L686.796 24.8493L677.109 38.8189L673 35.9696L682.688 22ZM155.121 39L160.082 39.624L157.961 56.4911L153 55.8671L155.121 39ZM422.303 51L426.412 53.8493L416.724 67.8189L412.616 64.9696L422.303 51ZM275.397 65.5371L273 61.149L287.92 53L290.316 57.3881L275.397 65.5371ZM826.329 71.9692L821.384 71.228L823.905 54.4158L828.849 55.1571L826.329 71.9692ZM1054.72 55L1057.22 59.3301L1042.5 67.8301L1040 63.5L1054.72 55ZM507.282 71.3921L503.638 74.8149L492 62.4229L495.645 59L507.282 71.3921ZM917.397 73.5371L915 69.149L929.92 61L932.316 65.3881L917.397 73.5371ZM73.7224 61L76.2224 65.3301L61.5 73.8301L59 69.5L73.7224 61ZM217.121 101L222.082 101.624L219.961 118.491L215 117.867L217.121 101ZM332.945 119.969L328 119.228L330.52 102.416L335.465 103.157L332.945 119.969ZM44 119.508L47.5626 116L59.4905 128.113L55.9279 131.621L44 119.508ZM979.139 142.961L974.15 143.299L973 126.338L977.989 126L979.139 142.961ZM275.688 156L279.796 158.849L270.109 172.819L266 169.97L275.688 156ZM744.374 168.734L741.938 173.101L727.091 164.819L729.527 160.453L744.374 168.734ZM847.722 168L850.222 172.33L835.5 180.83L833 176.5L847.722 168ZM48.9448 203.553L44 202.812L46.5203 186L51.465 186.741L48.9448 203.553ZM322.282 219.392L318.638 222.815L307 210.423L310.645 207L322.282 219.392ZM899 211.541L903.896 210L909.287 226.173L904.391 227.713L899 211.541ZM407.397 222.537L405 218.149L419.92 210L422.316 214.388L407.397 222.537ZM219.397 229.537L217 225.149L231.92 217L234.316 221.388L219.397 229.537ZM999.121 220L1004.08 220.624L1001.96 237.491L997 236.867L999.121 220ZM142.329 238.969L137.384 238.228L139.905 221.416L144.849 222.157L142.329 238.969ZM184 286.541L188.896 285L194.287 301.173L189.391 302.713L184 286.541ZM865 299.508L868.563 296L880.491 308.113L876.928 311.621L865 299.508ZM556 304.541L560.896 303L566.287 319.173L561.391 320.713L556 304.541ZM716 315.508L719.563 312L731.49 324.113L727.928 327.621L716 315.508ZM298.225 319.696L301.916 316.296L313.97 328.897L310.28 332.297L298.225 319.696ZM324.444 327.896L326.1 332.632L309.752 338.698L308.095 333.962L324.444 327.896ZM794 357.541L798.896 356L804.287 372.173L799.391 373.713L794 357.541ZM69.0071 363.449L73.2285 366.308L63.2214 380.254L59 377.394L69.0071 363.449ZM511.945 396.553L507 395.812L509.52 379L514.465 379.741L511.945 396.553ZM146.093 440.542L141 439.823L143.516 423L148.609 423.719L146.093 440.542ZM1046.12 432L1051.08 432.624L1048.96 449.491L1044 448.867L1046.12 432ZM297 490.688L298.788 486L315.195 491.905L313.408 496.594L297 490.688ZM1005.94 545.553L1001 544.812L1003.52 528L1008.46 528.741L1005.94 545.553ZM568.308 563.004L565.736 567.292L551.157 558.549L553.729 554.261L568.308 563.004Z" clip-rule="evenodd" fill="#FFEFF0" fill-opacity="1.000000" fill-rule="evenodd"/>
	<path id="squares" d="M772.982 74.5403L793.44 84.7025C796.209 86.0778 797.882 88.8852 797.882 91.8657C797.882 92.5208 797.801 93.1843 797.633 93.8428L792.669 113.323C791.537 117.765 786.912 120.349 782.536 118.985L761.859 112.539C758.458 111.479 756.239 108.337 756.239 104.907C756.239 104.329 756.302 103.743 756.432 103.157L761.615 79.9607C762.747 74.8935 768.332 72.2305 772.982 74.5403ZM88.8267 145.02L104.594 105.96C105.999 102.478 109.636 100.443 113.339 101.065L158.349 108.63C162.269 109.289 165.025 112.686 165.025 116.51C165.025 117.034 164.973 117.567 164.865 118.102L156.993 157.102C156.155 161.256 152.223 164.035 148.028 163.44L95.1216 155.935C91.0333 155.356 88.2399 151.849 88.2399 148.016C88.2399 147.024 88.4268 146.011 88.8267 145.02ZM977.994 274.968L1000.97 214.005C1002.3 210.475 1005.91 208.354 1009.65 208.916L1063.85 217.084C1067.84 217.685 1070.66 221.116 1070.66 224.985C1070.66 225.531 1070.6 226.086 1070.49 226.644L1057.75 287.125C1056.89 291.179 1053.09 293.91 1048.97 293.419L984.533 285.733C980.371 285.237 977.475 281.696 977.475 277.793C977.475 276.86 977.641 275.906 977.994 274.968ZM98.5604 251.804L99.0321 274.643C99.0332 274.698 99.0338 274.754 99.0338 274.81C99.0338 278.51 96.49 281.738 92.8744 282.593L73.3109 287.218C68.8501 288.273 64.417 285.371 63.5988 280.861L59.7323 259.551C59.645 259.069 59.6028 258.589 59.6028 258.116C59.6028 254.559 61.9843 251.346 65.5328 250.395L88.4912 244.242C93.5063 242.898 98.4532 246.613 98.5604 251.804ZM344.464 408.19L279.073 378.583C276.167 377.268 274.372 374.386 274.372 371.298C274.372 370.736 274.431 370.167 274.554 369.599L288.007 307.592C288.979 303.112 293.509 300.364 297.931 301.57L363.582 319.48C367.114 320.444 369.477 323.648 369.477 327.191C369.477 327.676 369.433 328.168 369.341 328.661L355.628 402.366C354.679 407.47 349.193 410.332 344.464 408.19ZM812.552 495.47L805.175 476.377C804.811 475.435 804.636 474.459 804.636 473.496C804.636 470.858 805.944 468.312 808.257 466.799L821.669 458.025C825.528 455.501 830.715 456.752 832.999 460.757L842.633 477.653C843.343 478.899 843.684 480.263 843.684 481.61C843.684 484.143 842.481 486.622 840.271 488.169L824.603 499.139C820.347 502.119 814.425 500.315 812.552 495.47ZM114.682 675.255L82.2743 600.033C81.833 599.009 81.6208 597.934 81.6208 596.871C81.6208 594.381 82.7855 591.958 84.8944 590.414L116.276 567.43C120.167 564.58 125.675 565.795 128.006 570.017L165.821 638.499C166.494 639.717 166.818 641.046 166.818 642.362C166.818 644.714 165.781 647.025 163.845 648.589L127.057 678.312C122.937 681.641 116.778 680.12 114.682 675.255ZM1044.03 672.347L1023.09 671.661C1019.45 671.541 1016.35 668.979 1015.55 665.427L1006.16 623.847C1006.02 623.254 1005.96 622.661 1005.96 622.078C1005.96 618.47 1008.41 615.204 1012.06 614.313L1030.96 609.7C1035.25 608.652 1039.58 611.282 1040.62 615.575L1052.07 662.455C1052.23 663.1 1052.3 663.742 1052.3 664.37C1052.3 668.753 1048.66 672.499 1044.03 672.347Z" clip-rule="evenodd" fill="#FFE6E7" fill-opacity="1.000000" fill-rule="evenodd"/>
	<rect id="illustration" width="1016.099976" height="452.459076" transform="translate(52.000000 228.000000)" fill="#FFFFFF" fill-opacity="0"/>
	<g clip-path="url(#clip0_232)">
		<path id="Vector" d="M71.6946 316.793L58.9092 268.449L89.0574 259.584L101.843 307.928L71.6946 316.793Z" fill="#362E2D" fill-opacity="1.000000" fill-rule="evenodd"/>
		<path id="Vector" d="M56.2 271.759L58.7999 268.701L87.5 263.535L100.3 307.083L89.5 332.706L69.2999 318.787L56.2 271.759Z" fill="#FFFFFF" fill-opacity="1.000000" fill-rule="nonzero"/>
		<path id="Vector" d="M77.7999 290.423L90.6 334.709L68.8999 320.052L56.2 271.759L77.7999 290.423Z" fill="#4E3734" fill-opacity="1.000000" fill-rule="nonzero"/>
		<path id="Vector" d="M58.8 269.545L85.6001 268.49L98.6001 311.09L100.3 307.083L87.5 263.535L59.6001 268.49L58.8 269.545Z" fill="#F7F7F7" fill-opacity="1.000000" fill-rule="nonzero"/>
		<path id="Vector" d="M209.4 307.926C209.4 325.688 195.745 340.087 178.9 340.087C162.055 340.087 148.4 325.688 148.4 307.926C148.4 290.165 162.055 275.766 178.9 275.766C195.745 275.766 209.4 290.165 209.4 307.926Z" fill="#8C503E" fill-opacity="1.000000" fill-rule="evenodd"/>
		<path id="Vector" d="M318.2 612.342C318.2 612.342 322 622.36 323.7 627.843C325.4 633.326 328.4 640.18 330.9 640.39C333.4 640.601 333.9 630.373 332.3 614.768C330.7 599.267 331.9 597.053 323.8 597.159C320.2 597.159 318.2 596.842 318.2 596.842L318.2 612.342Z" fill="#FF6ED9" fill-opacity="1.000000" fill-rule="nonzero"/>
		<path id="Vector" d="M94.2 666.54C94.2 666.54 83.3 668.333 77.6 670.758C71.9 673.183 67.5 675.609 67.5 678.561C67.5 680.881 77.9 680.143 94.1 680.143C110.7 680.248 115.4 680.67 112.5 671.813C111.5 668.755 108.9 666.224 108.9 666.224L94.2 666.54Z" fill="#FF6ED9" fill-opacity="1.000000" fill-rule="nonzero"/>
		<path id="Vector" d="M209.4 307.926C209.4 290.106 195.7 275.766 178.9 275.766C174.3 275.766 169.9 276.82 166 278.824L165.2 279.246C164.2 281.249 163.6 283.463 163.6 285.889C163.6 293.586 169.5 299.807 176.8 299.807C177.4 299.807 178 299.702 178.7 299.702C177.9 300.756 177.5 302.127 177.5 303.603C177.5 306.872 179.9 309.613 182.9 310.035C182.6 310.879 182.5 311.722 182.5 312.566C182.5 316.573 185.6 319.841 189.4 319.841L189.5 319.841C190.1 322.794 192.5 324.903 195.5 324.903C196.3 324.903 197.1 324.692 197.8 324.481C198.2 326.695 200.1 328.382 202.3 328.382L204 326.695C207.3 321.423 209.4 314.886 209.4 307.926Z" fill="#4E3734" fill-opacity="1.000000" fill-rule="nonzero"/>
		<path id="Vector" d="M87.8 345.781C87.8 345.781 88.4 335.342 85.5 329.753C82.6001 324.165 76.4 321.107 73.5 316.256C70.7001 311.406 70.8 304.763 68.1001 304.13C65.4 303.498 60.9 314.886 63.8 320.369C66.6001 325.852 70.2001 329.437 72 335.025C73.8 340.614 76.6001 345.57 78.3 347.151C80.1001 348.733 87.8 345.781 87.8 345.781Z" fill="#8C503E" fill-opacity="1.000000" fill-rule="nonzero"/>
		<path id="Vector" d="M258.3 471.153C258.3 471.153 261.8 480.959 266.7 484.755C271.5 488.551 278.4 488.657 282.9 491.926C287.4 495.089 289.8 501.205 292.5 500.572C295.2 499.939 294.8 487.602 290.1 483.912C285.4 480.116 280.7 478.429 276.9 474.106C273.1 469.782 268.6 466.514 266.4 465.776C264.2 465.037 258.3 471.153 258.3 471.153Z" fill="#8C503E" fill-opacity="1.000000" fill-rule="nonzero"/>
		<path id="Vector" d="M142.2 492.769C142.2 492.769 122.7 535.685 114.2 569.005C103 613.081 94.2 666.646 94.2 666.646L108.8 666.435C108.8 666.435 126.5 644.714 152.1 600.744C177.9 556.352 189.6 528.198 189.6 528.198C189.6 528.198 206.9 593.995 218.2 604.329C234 618.774 270.9 618.142 282.6 617.298C294.3 616.455 318.1 612.448 318.1 612.448L318.1 596.948C318.1 596.948 288.1 591.886 276.1 586.614C264.1 581.342 249.8 577.019 249.8 577.019C249.8 577.019 245 541.801 241.5 523.137C238 504.473 233.2 483.068 233.2 483.068L142.2 492.769Z" fill="#5441AF" fill-opacity="1.000000" fill-rule="nonzero"/>
		<path id="Vector" d="M189.7 528.093L195.5 515.229C195.5 515.229 198.8 522.083 198.4 530.834C198.1 539.586 196.3 551.29 196.3 551.29L189.7 528.093Z" fill="#4F3D9D" fill-opacity="1.000000" fill-rule="nonzero"/>
		<path id="Vector" d="M52 360.754C52 360.754 57.2 360.965 65.7 366.764C84.7 379.734 90.9 407.781 113.9 411.894C133.2 415.373 145.7 409.258 145.7 409.258C145.7 409.258 138.2 431.928 136.2 442.262C134.2 452.595 134.4 471.259 126.4 479.483C118.4 487.708 114.7 491.609 114.7 491.609C114.7 491.609 149.7 498.252 178 492.664C206.3 487.075 221.7 485.072 226.8 485.283C232 485.494 240 486.548 240 486.548C240 486.548 236.8 478.956 233.8 471.259C230.8 463.561 230.1 455.758 230.1 455.758C230.1 455.758 249.1 471.786 252.1 477.058C255.1 482.33 255.6 491.082 255.6 491.082C255.6 491.082 259.9 481.276 262.9 477.902C265.9 474.527 268.2 470.521 271.9 467.568C275.6 464.616 277.7 462.296 277.7 462.296C277.7 462.296 273.7 462.612 270.2 459.344C266.7 455.969 247 430.557 243 426.445C239 422.438 224 405.145 224 405.145C224 405.145 222.2 350.104 191.3 351.158C171.8 351.791 160.5 356.958 148.1 364.022C135.8 371.087 124.9 378.784 124.9 378.784C124.9 378.784 103.9 365.393 96.6 349.366C94.1 343.988 93 339.981 93 339.981C93 339.981 85.3 341.457 74.7 346.94C63.4 352.951 52 360.754 52 360.754Z" fill="#FF353A" fill-opacity="1.000000" fill-rule="nonzero"/>
		<path id="Vector" d="M145.7 409.258C145.7 409.258 156.6 408.941 166.9 405.673C177.2 402.298 188.3 397.132 191 390.489C193.7 383.846 194.9 377.097 194.9 377.097C194.9 377.097 196.8 388.169 192.4 398.608C188 409.047 173.8 414.108 168.5 416.112C163.2 418.115 141.8 421.7 141.8 421.7L145.7 409.258Z" fill="#E2303D" fill-opacity="1.000000" fill-rule="nonzero"/>
		<path id="Vector" d="M225.2 416.955C225.2 416.955 226.8 435.513 227.5 440.996C228.2 446.479 230.3 455.969 230.3 455.969L235.5 460.398C235.5 460.398 231.8 448.694 230.4 440.364C228.8 432.034 225.2 416.955 225.2 416.955Z" fill="#E2303D" fill-opacity="1.000000" fill-rule="nonzero"/>
		<path id="Vector" d="M186.4 485.494C182.9 485.494 180.1 482.541 180.1 478.851C180.1 475.16 182.9 472.208 186.4 472.208C189.9 472.208 192.7 475.16 192.7 478.851C192.7 482.541 189.9 485.494 186.4 485.494ZM186.4 473.262C183.5 473.262 181.1 475.793 181.1 478.851C181.1 481.908 183.5 484.439 186.4 484.439C189.3 484.439 191.7 481.908 191.7 478.851C191.7 475.793 189.4 473.262 186.4 473.262Z" fill="#5441AF" fill-opacity="1.000000" fill-rule="nonzero"/>
		<path id="Vector" d="M214 379.101C216 379.101 217.8 378.046 219 376.465C218.9 376.043 218.7 375.621 218.6 375.199C217.7 376.887 216 377.941 214.1 377.941C211.2 377.941 208.8 375.41 208.8 372.352C208.8 369.295 211.2 366.764 214.1 366.764C214.4 366.764 214.7 366.764 215 366.869C214.8 366.448 214.6 366.131 214.4 365.709C214.3 365.709 214.2 365.709 214.1 365.709C210.6 365.709 207.8 368.662 207.8 372.352C207.8 376.043 210.5 379.101 214 379.101Z" fill="#5441AF" fill-opacity="1.000000" fill-rule="nonzero"/>
		<path id="Vector" d="M131.6 488.446C136.6 488.446 140.7 484.123 140.7 478.851C140.7 473.578 136.7 469.361 131.7 469.255C131.6 469.572 131.5 469.993 131.4 470.31C131.5 470.31 131.5 470.31 131.6 470.31C136.1 470.31 139.7 474.106 139.7 478.851C139.7 483.596 136.1 487.392 131.6 487.392C128.2 487.392 125.2 485.072 124 481.909C123.7 482.225 123.5 482.436 123.2 482.752C124.7 486.126 127.9 488.446 131.6 488.446Z" fill="#5441AF" fill-opacity="1.000000" fill-rule="nonzero"/>
		<path id="Vector" d="M156 383.951C152 383.951 148.8 380.577 148.8 376.359C148.8 372.142 152 368.767 156 368.767C160 368.767 163.2 372.142 163.2 376.359C163.2 380.577 159.9 383.951 156 383.951ZM156 369.927C152.6 369.927 149.8 372.88 149.8 376.465C149.8 380.05 152.6 383.002 156 383.002C159.4 383.002 162.2 380.05 162.2 376.465C162.2 372.88 159.4 369.927 156 369.927Z" fill="#5441AF" fill-opacity="1.000000" fill-rule="nonzero"/>
		<path id="Vector" d="M98.7999 369.927C96.2999 369.927 94.2 367.713 94.2 365.077C94.2 362.441 96.2999 360.226 98.7999 360.226C101.3 360.226 103.4 362.441 103.4 365.077C103.4 367.713 101.3 369.927 98.7999 369.927ZM98.7999 361.281C96.7999 361.281 95.2 362.968 95.2 365.077C95.2 367.186 96.7999 368.873 98.7999 368.873C100.8 368.873 102.4 367.186 102.4 365.077C102.4 362.968 100.8 361.281 98.7999 361.281Z" fill="#5441AF" fill-opacity="1.000000" fill-rule="nonzero"/>
		<path id="Vector" d="M246.9 430.874C246.3 432.034 245.1 432.772 243.8 432.772C241.8 432.772 240.2 431.085 240.2 428.976C240.2 427.5 241 426.234 242.2 425.602C242 425.391 241.7 425.074 241.5 424.863C240.1 425.707 239.2 427.289 239.2 429.081C239.2 431.717 241.3 433.932 243.8 433.932C245.4 433.932 246.8 433.088 247.6 431.823C247.4 431.401 247.2 431.085 246.9 430.874Z" fill="#5441AF" fill-opacity="1.000000" fill-rule="nonzero"/>
		<path id="Vector" d="M198.4 419.169C195.9 419.169 193.8 416.955 193.8 414.319C193.8 411.683 195.9 409.469 198.4 409.469C200.9 409.469 203 411.683 203 414.319C203 416.955 201 419.169 198.4 419.169ZM198.4 410.628C196.4 410.628 194.8 412.316 194.8 414.424C194.8 416.533 196.4 418.22 198.4 418.22C200.4 418.22 202 416.533 202 414.424C202 412.316 200.4 410.628 198.4 410.628Z" fill="#5441AF" fill-opacity="1.000000" fill-rule="nonzero"/>
		<path id="Vector" d="M66.2 362.335C64.6 362.335 63.2 363.39 62.5 364.76C62.8 364.971 63.1 365.077 63.4 365.288C63.9 364.128 65 363.39 66.2 363.39C67.9 363.39 69.3 364.866 69.3 366.659C69.3 367.502 69 368.346 68.4 368.873C68.7 369.084 68.9 369.295 69.2 369.505C69.9 368.767 70.3 367.713 70.3 366.659C70.3 364.233 68.5 362.335 66.2 362.335Z" fill="#5441AF" fill-opacity="1.000000" fill-rule="nonzero"/>
		<path id="Vector" d="M150.2 442.367C147.2 442.367 144.8 439.836 144.8 436.673C144.8 433.51 147.2 430.979 150.2 430.979C153.2 430.979 155.6 433.51 155.6 436.673C155.6 439.836 153.2 442.367 150.2 442.367ZM150.2 431.928C147.8 431.928 145.8 434.037 145.8 436.568C145.8 439.098 147.8 441.207 150.2 441.207C152.6 441.207 154.6 439.098 154.6 436.568C154.6 434.037 152.7 431.928 150.2 431.928Z" fill="#5441AF" fill-opacity="1.000000" fill-rule="nonzero"/>
		<path id="Vector" d="M248.9 464.721C246.7 464.721 244.8 466.092 243.9 468.095C244.2 468.306 244.4 468.623 244.7 468.833C245.3 467.041 246.9 465.67 248.9 465.67C251.3 465.67 253.3 467.779 253.3 470.31C253.3 472.313 252.1 474 250.4 474.633C250.7 474.949 250.9 475.16 251.1 475.476C253 474.527 254.3 472.629 254.3 470.31C254.3 467.252 251.9 464.721 248.9 464.721Z" fill="#5441AF" fill-opacity="1.000000" fill-rule="nonzero"/>
		<path id="Vector" d="M133.5 403.247C131.2 403.247 129.4 401.349 129.4 398.924C129.4 396.499 131.2 394.601 133.5 394.601C135.8 394.601 137.6 396.499 137.6 398.924C137.6 401.349 135.8 403.247 133.5 403.247ZM133.5 395.656C131.8 395.656 130.4 397.132 130.4 398.924C130.4 400.717 131.8 402.193 133.5 402.193C135.2 402.193 136.6 400.717 136.6 398.924C136.6 397.132 135.2 395.656 133.5 395.656Z" fill="#5441AF" fill-opacity="1.000000" fill-rule="nonzero"/>
		<path id="Vector" d="M214 456.075C210.8 456.075 208.3 453.333 208.3 450.065C208.3 446.796 210.9 444.054 214 444.054C217.1 444.054 219.7 446.796 219.7 450.065C219.7 453.333 217.2 456.075 214 456.075ZM214 445.003C211.4 445.003 209.3 447.218 209.3 449.959C209.3 452.701 211.4 454.915 214 454.915C216.6 454.915 218.7 452.701 218.7 449.959C218.7 447.218 216.6 445.003 214 445.003Z" fill="#5441AF" fill-opacity="1.000000" fill-rule="nonzero"/>
		<path id="Vector" d="M173.9 453.228C172.2 453.228 170.9 451.752 170.9 450.064C170.9 448.272 172.3 446.901 173.9 446.901C175.5 446.901 176.9 448.377 176.9 450.064C176.9 451.752 175.6 453.228 173.9 453.228ZM173.9 447.85C172.8 447.85 171.9 448.799 171.9 449.959C171.9 451.119 172.8 452.068 173.9 452.068C175 452.068 175.9 451.119 175.9 449.959C175.9 448.799 175 447.85 173.9 447.85Z" fill="#5441AF" fill-opacity="1.000000" fill-rule="nonzero"/>
		<path id="Vector" d="M101.3 406.516C102.1 405.462 102.6 404.091 102.6 402.509C102.6 398.819 99.7999 395.866 96.2999 395.866C94.7 395.866 93.2 396.499 92.1 397.554C92.2999 397.87 92.6 398.081 92.7999 398.397C93.7 397.554 95 396.921 96.2999 396.921C99.2 396.921 101.6 399.451 101.6 402.509C101.6 403.775 101.2 404.935 100.5 405.884C100.7 406.094 101 406.305 101.3 406.516Z" fill="#5441AF" fill-opacity="1.000000" fill-rule="nonzero"/>
		<path id="Vector" d="M78.3 670.125C78.3 670.125 79.4 670.758 80.1001 671.918C80.8 673.078 80.6001 674.87 80.6001 674.87" stroke="#5441AF" stroke-opacity="1.000000" stroke-width="1.000000"/>
		<path id="Vector" d="M82 668.544C82 668.544 83.1 669.177 83.8 670.336C84.5 671.496 84.3 673.289 84.3 673.289" stroke="#5441AF" stroke-opacity="1.000000" stroke-width="1.000000"/>
		<path id="Vector" d="M85.6 667.595C85.6 667.595 86.7 668.228 87.4 669.387C88.1 670.547 87.9 672.34 87.9 672.34" stroke="#5441AF" stroke-opacity="1.000000" stroke-width="1.000000"/>
		<path id="Vector" d="M88.9 666.435C88.9 666.435 90 667.068 90.7001 668.228C91.4 669.387 91.2001 671.18 91.2001 671.18" stroke="#5441AF" stroke-opacity="1.000000" stroke-width="1.000000"/>
		<path id="Vector" d="M322.9 627.104C322.9 627.104 323.4 625.839 324.5 625.101C325.6 624.363 327.3 624.468 327.3 624.468" stroke="#5441AF" stroke-opacity="1.000000" stroke-width="1.000000"/>
		<path id="Vector" d="M321.2 623.309C321.2 623.309 321.7 622.043 322.8 621.305C323.9 620.567 325.6 620.672 325.6 620.672" stroke="#5441AF" stroke-opacity="1.000000" stroke-width="1.000000"/>
		<path id="Vector" d="M320.2 619.513C320.2 619.513 320.7 618.247 321.8 617.509C322.9 616.771 324.6 616.876 324.6 616.876" stroke="#5441AF" stroke-opacity="1.000000" stroke-width="1.000000"/>
		<path id="Vector" d="M318.9 616.138C318.9 616.138 319.4 614.873 320.5 614.135C321.6 613.397 323.3 613.502 323.3 613.502" stroke="#5441AF" stroke-opacity="1.000000" stroke-width="1.000000"/>
		<path id="Vector" d="M575.1 342.196L606.9 382.475L592.1 405.462L561.5 367.397L575.1 342.196Z" fill="#4F3D9D" fill-opacity="1.000000" fill-rule="nonzero"/>
		<path id="Vector" d="M561.5 370.033L561.6 367.607L575.2 343.777L605.3 382.475L595 398.081L584.2 393.547L561.5 370.033Z" fill="#FFFFFF" fill-opacity="1.000000" fill-rule="nonzero"/>
		<path id="Vector" d="M614.5 413.792L616 412.316L588.8 377.519L561.5 369.295L561.5 370.033L569.2 380.472L614.5 413.792Z" fill="#F7F7F7" fill-opacity="1.000000" fill-rule="nonzero"/>
		<path id="Vector" d="M588.2 378.574L616 414.53L590.7 409.574L561.5 370.033L588.2 378.574Z" fill="#5441AF" fill-opacity="1.000000" fill-rule="nonzero"/>
		<path id="Vector" d="M561.5 367.397L561.5 370.033L562.1 370.244L562 366.342L561.5 367.397Z" fill="#362E2D" fill-opacity="1.000000" fill-rule="nonzero"/>
		<path id="Vector" d="M652.6 511.855C652.6 511.855 631.8 530.834 623.8 538.743C615.8 546.651 611.8 549.814 609.8 555.614C607.8 561.413 603.3 603.063 602.5 616.033C601.7 629.003 601 656.945 601 656.945L614.8 656.945C614.8 656.945 619.8 638.492 624.8 627.632C629.8 616.771 637.1 604.434 640.3 594.944C643.5 585.454 645.1 572.485 645.1 572.485C645.1 572.485 657.9 571.219 672.9 563.311C687.9 555.403 694.2 551.396 694.2 551.396C694.2 551.396 703.5 570.903 711.5 587.247C719.5 603.591 722.5 608.652 729.5 615.717C736.5 622.781 763.7 635.118 776.2 639.125C793.5 644.608 808.6 646.717 808.6 646.717L811.1 632.693C811.1 632.693 791.1 622.043 780.2 614.135C770.2 606.859 761.9 598.635 759.4 591.781C756.9 584.927 753.3 545.807 750.1 528.198C746.9 510.589 740.6 503.103 740.6 503.103L652.6 511.855Z" fill="#FF6ED9" fill-opacity="1.000000" fill-rule="nonzero"/>
		<path id="Vector" d="M694.1 551.396C694.1 551.396 698.2 549.392 701.7 547.073C705.2 544.753 708.1 542.222 708.1 542.222C708.1 542.222 707.3 548.022 704.8 553.083C702.3 558.144 699.3 562.362 699.3 562.362L694.1 551.396Z" fill="#FF5ED2" fill-opacity="1.000000" fill-rule="nonzero"/>
		<path id="Vector" d="M657.4 557.828L651.4 552.872L656.1 546.546L662.1 551.501L657.4 557.828ZM652.8 552.767L657.2 556.352L660.6 551.712L656.2 548.127L652.8 552.767Z" fill="#5441AF" fill-opacity="1.000000" fill-rule="nonzero"/>
		<path id="Vector" d="M621.2 561.097L616.5 559.831L617.7 554.876L622.4 556.141L621.2 561.097ZM617.7 559.093L620.5 559.831L621.2 556.879L618.4 556.141L617.7 559.093Z" fill="#5441AF" fill-opacity="1.000000" fill-rule="nonzero"/>
		<path id="Vector" d="M690.1 536.423L685.4 535.158L686.6 530.202L691.3 531.467L690.1 536.423ZM686.6 534.42L689.4 535.158L690.1 532.205L687.3 531.467L686.6 534.42Z" fill="#5441AF" fill-opacity="1.000000" fill-rule="nonzero"/>
		<path id="Vector" d="M635.8 582.818L629.4 576.702L635.2 569.954L641.6 576.07L635.8 582.818ZM630.8 576.702L635.7 581.447L640.2 576.281L635.3 571.536L630.8 576.702Z" fill="#5441AF" fill-opacity="1.000000" fill-rule="nonzero"/>
		<path id="Vector" d="M721.4 537.583L715.7 532.311L720.7 526.3L726.4 531.573L721.4 537.583ZM717.1 532.311L721.3 536.212L725 531.783L720.8 527.882L717.1 532.311Z" fill="#5441AF" fill-opacity="1.000000" fill-rule="nonzero"/>
		<path id="Vector" d="M614.2 646.19L609.5 644.714L610.9 639.758L615.6 641.234L614.2 646.19ZM610.8 643.976L613.5 644.819L614.3 641.972L611.6 641.129L610.8 643.976Z" fill="#5441AF" fill-opacity="1.000000" fill-rule="nonzero"/>
		<path id="Vector" d="M607.9 626.577L606.4 619.091L613.5 617.509L615 624.996L607.9 626.577ZM607.6 619.829L608.7 625.312L613.9 624.152L612.8 618.669L607.6 619.829Z" fill="#5441AF" fill-opacity="1.000000" fill-rule="nonzero"/>
		<path id="Vector" d="M605.2 587.985C605.2 588.407 605.1 588.934 605.1 589.356L606.4 588.512L608.9 592.519L605.1 595.155L604.6 594.417C604.5 594.944 604.5 595.577 604.4 596.104L604.7 596.631L610.2 592.941L606.7 587.141L605.2 587.985Z" fill="#5441AF" fill-opacity="1.000000" fill-rule="nonzero"/>
		<path id="Vector" d="M643.2 526.089L638.7 528.936L637.1 526.195C636.8 526.406 636.6 526.617 636.3 526.933L638.3 530.413L644.5 526.511L641.8 521.872C641.5 522.083 641.3 522.293 641 522.61L643.2 526.089Z" fill="#5441AF" fill-opacity="1.000000" fill-rule="nonzero"/>
		<path id="Vector" d="M733.5 590.516L728.7 584.294L734.6 579.233L739.4 585.454L733.5 590.516ZM730.2 584.505L733.7 589.039L738 585.349L734.5 580.815L730.2 584.505Z" fill="#5441AF" fill-opacity="1.000000" fill-rule="nonzero"/>
		<path id="Vector" d="M736.3 614.24L732 611.921L734.2 607.387L738.5 609.706L736.3 614.24ZM733.3 611.499L735.9 612.87L737.2 610.128L734.6 608.757L733.3 611.499Z" fill="#5441AF" fill-opacity="1.000000" fill-rule="nonzero"/>
		<path id="Vector" d="M741 551.923L736.7 549.603L738.9 545.069L743.2 547.389L741 551.923ZM738 549.076L740.6 550.447L741.9 547.705L739.3 546.335L738 549.076Z" fill="#5441AF" fill-opacity="1.000000" fill-rule="nonzero"/>
		<path id="Vector" d="M761.8 596.737C761.6 596.42 761.4 596.209 761.2 595.893L757.6 598.529L753.8 592.73L758.5 589.356C758.4 589.039 758.3 588.618 758.3 588.196L752.5 592.414L757.4 599.9L761.8 596.737Z" fill="#5441AF" fill-opacity="1.000000" fill-rule="nonzero"/>
		<path id="Vector" d="M798.6 636.278L791.3 636.173L791.4 628.475L798.7 628.581L798.6 636.278ZM792.3 635.118L797.6 635.224L797.7 629.635L792.4 629.53L792.3 635.118Z" fill="#5441AF" fill-opacity="1.000000" fill-rule="nonzero"/>
		<path id="Vector" d="M764 633.115L761.8 626.577L768 624.258L770.2 630.795L764 633.115ZM763.1 627.21L764.6 631.744L768.9 630.162L767.4 625.628L763.1 627.21Z" fill="#5441AF" fill-opacity="1.000000" fill-rule="nonzero"/>
		<path id="Vector" d="M705.3 574.699L714.4 578.39L711.3 586.93C711.3 587.036 711.4 587.141 711.4 587.141C711.6 587.458 711.7 587.774 711.9 588.196L715.7 577.757L704.6 573.223C704.8 573.75 705 574.172 705.3 574.699Z" fill="#5441AF" fill-opacity="1.000000" fill-rule="nonzero"/>
		<path id="Vector" d="M624 608.547L629.5 616.56L630.8 615.506C631.2 614.768 631.5 614.135 631.9 613.397L629.7 615.084L625.4 608.757L631.4 604.223L634.4 608.547C634.6 608.23 634.7 607.808 634.9 607.492L631.7 602.747L624 608.547Z" fill="#5441AF" fill-opacity="1.000000" fill-rule="nonzero"/>
		<path id="Vector" d="M726.3 335.447C726.3 353.209 712.645 367.608 695.8 367.608C678.955 367.608 665.3 353.209 665.3 335.447C665.3 317.686 678.955 303.287 695.8 303.287C712.645 303.287 726.3 317.686 726.3 335.447Z" fill="#DF8E89" fill-opacity="1.000000" fill-rule="evenodd"/>
		<path id="Vector" d="M601.1 656.84C601.1 656.84 601.4 660.846 599.8 661.69C596.7 663.588 591.6 666.646 588.7 668.649C584.4 671.602 579.1 676.769 579.6 679.405C580.1 681.935 589.2 679.615 602.4 674.238C615.6 668.966 618.1 670.442 615.8 662.217C614.8 658.527 614.5 656.523 614.5 656.523L601.1 656.84Z" fill="#5441AF" fill-opacity="1.000000" fill-rule="nonzero"/>
		<path id="Vector" d="M808.4 646.612C808.4 646.612 812.1 647.139 812.7 648.931C813.8 652.516 815.7 658.421 817 661.796C818.9 666.857 822.7 673.289 825.2 673.289C827.7 673.289 827.3 663.377 825 648.721C822.7 634.064 824.6 631.744 816.5 632.482C812.9 632.799 811 632.693 811 632.693L808.4 646.612Z" fill="#5441AF" fill-opacity="1.000000" fill-rule="nonzero"/>
		<path id="Vector" d="M603.9 415.69C603.9 415.69 601.6 405.567 597.2 401.139C592.9 396.71 586.1 395.656 582 391.965C577.9 388.275 576.2 381.842 573.5 382.053C570.8 382.264 569.7 394.601 573.9 398.924C578.1 403.248 582.6 405.567 585.9 410.418C589.2 415.268 593.3 419.064 595.3 420.013C597.3 420.962 603.9 415.69 603.9 415.69Z" fill="#DF8E89" fill-opacity="1.000000" fill-rule="nonzero"/>
		<path id="Vector" d="M755.7 305.079C755.7 305.079 755.5 297.909 758.4 292.321C761.3 286.732 769.5 283.358 772.3 278.508C775.1 273.657 779.7 268.807 782.4 268.174C785.1 267.541 784.9 276.293 782.1 281.776C779.3 287.259 773.2 288.63 771.4 294.324C769.6 300.018 766.8 304.869 765.2 306.45C763.5 307.926 755.7 305.079 755.7 305.079Z" fill="#DF8E89" fill-opacity="1.000000" fill-rule="nonzero"/>
		<path id="Vector" d="M674.2 299.385C674.2 299.385 672.2 312.566 683.3 319.736C694.4 326.906 702.2 323.321 702.2 323.321C702.2 323.321 699.9 336.08 707.1 346.097C714.3 356.114 717.5 358.118 717.5 358.118C717.5 358.118 735.4 344.304 731.4 329.437C729.1 321.001 723.7 318.998 723.7 318.998C723.7 318.998 724 310.668 715.7 304.236C707.4 297.804 691.4 303.076 684.7 302.654C678 302.232 674.2 299.385 674.2 299.385Z" fill="#FF353A" fill-opacity="1.000000" fill-rule="nonzero"/>
		<path id="Vector" d="M594.1 422.227L603.6 411.683L610.6 419.38C610.6 419.38 620.4 421.278 625.2 422.965C630 424.653 634.1 427.5 634.1 427.5C634.1 427.5 657 405.462 669.2 399.03C681.4 392.492 700.4 388.485 715.2 380.788C730 373.091 743.2 358.328 743.2 358.328C743.2 358.328 748.2 341.668 750 334.92C751.8 328.277 754 316.467 754 316.467L754 304.763L767 304.763L767 315.518C767 315.518 771 326.801 772.2 345.886C773.4 365.077 769 380.472 769 380.472C769 380.472 751.5 397.554 745.3 403.986C739.1 410.523 731 419.486 731 419.486C731 419.486 736.7 441.102 741.5 463.245C746.3 485.388 747.2 505.422 747.2 505.422C747.2 505.422 725.9 522.293 696.5 523.348C667.1 524.402 647.7 512.065 647.7 512.065C647.7 512.065 648 493.824 649.4 481.698C650.7 469.572 656.7 451.646 656.7 451.646C656.7 451.646 651.7 457.656 647 461.347C642.3 465.038 637 467.99 637 467.99C637 467.99 622.8 462.929 614.2 451.119C605.5 439.309 601.5 429.292 601.5 429.292L594.1 422.227Z" fill="#5441AF" fill-opacity="1.000000" fill-rule="nonzero"/>
		<path id="Vector" d="M656.7 451.752C656.7 451.752 662.3 434.564 665.5 425.074C668.7 415.584 670.2 411.999 670.2 411.999C670.2 411.999 662.4 419.802 658 432.772C653.6 445.741 650.3 458.711 650.3 458.711L656.7 451.752Z" fill="#4F3D9D" fill-opacity="1.000000" fill-rule="nonzero"/>
		<path id="Vector" d="M497.2 509.64L499.3 505.633L532.1 485.494L545 509.64L544.4 512.593L510.3 533.471L497.2 509.64Z" fill="#FF5ED2" fill-opacity="1.000000" fill-rule="nonzero"/>
		<path id="Vector" d="M497.222 509.649L531.429 488.824L544.429 512.565L510.222 533.39L497.222 509.649Z" fill="#FF6ED9" fill-opacity="1.000000" fill-rule="evenodd"/>
		<path id="Vector" d="M363.2 665.17C363.2 665.17 357.6 629.003 362.9 593.573C368.3 557.617 377.4 520.079 377.4 520.079C377.4 520.079 406.2 526.406 426.7 522.399C447.2 518.392 471.7 511.116 471.7 511.116C471.7 511.116 475.9 531.467 478.3 555.719C480.6 579.971 479.1 576.281 482.4 588.196C485.7 600.111 497.3 634.907 501.6 645.135C506 655.363 510.7 668.017 510.7 668.017L495.4 668.017C495.4 668.017 465.2 634.802 452.4 614.768C439.6 594.733 423.8 559.199 423.8 559.199C423.8 559.199 406.8 596.315 399.9 611.71C393 627.21 375.7 668.649 375.7 668.649L363.2 665.17Z" fill="#4E3734" fill-opacity="1.000000" fill-rule="nonzero"/>
		<path id="Vector" d="M455.1 354.322C455.1 371.326 442.027 385.111 425.9 385.111C409.773 385.111 396.7 371.326 396.7 354.322C396.7 337.317 409.773 323.532 425.9 323.532C442.027 323.532 455.1 337.317 455.1 354.322Z" fill="#DF8E89" fill-opacity="1.000000" fill-rule="evenodd"/>
		<path id="Vector" d="M450.9 370.349C453.6 365.71 455.2 360.121 455.2 354.322C455.2 337.24 442.1 323.532 426 323.532C420 323.532 414.5 325.43 409.9 328.699C409.9 328.699 406.7 339.77 414.5 347.046C422.4 354.427 430.9 350.209 430.9 350.209C430.9 350.209 427.6 360.859 436.2 367.502C443.5 373.196 450.9 370.349 450.9 370.349Z" fill="#4E3734" fill-opacity="1.000000" fill-rule="nonzero"/>
		<path id="Vector" d="M479.2 315.518C479.2 330.077 468.007 341.879 454.2 341.879C440.393 341.879 429.2 330.077 429.2 315.518C429.2 300.96 440.393 289.157 454.2 289.157C468.007 289.157 479.2 300.96 479.2 315.518Z" fill="#4E3734" fill-opacity="1.000000" fill-rule="evenodd"/>
		<path id="Vector" d="M427.1 541.801C427.1 541.801 426.1 548.971 425.3 552.767C424.5 556.563 423.7 559.304 423.7 559.304L432.3 577.757C432.3 577.757 432.7 562.468 431.1 553.927C429.5 545.386 427.1 541.801 427.1 541.801Z" fill="#362E2D" fill-opacity="1.000000" fill-rule="nonzero"/>
		<path id="Vector" d="M363.2 665.17C363.2 665.17 353.3 666.962 348.2 667.595C343.1 668.228 336.5 670.02 335.9 672.551C335.3 675.081 344.1 677.612 357.9 679.194C371.7 680.67 372.9 682.357 374.1 674.132C374.6 670.336 375.5 668.86 375.5 668.86L363.2 665.17Z" fill="#FF353A" fill-opacity="1.000000" fill-rule="nonzero"/>
		<path id="Vector" d="M497.9 668.228C497.9 668.228 488.8 669.915 484 672.024C479.2 674.132 475.5 676.347 475.5 678.983C475.5 680.986 484.2 680.354 497.8 680.459C511.7 680.565 515.6 680.881 513.2 672.973C512.4 670.231 510.1 668.017 510.1 668.017L497.9 668.228Z" fill="#FF353A" fill-opacity="1.000000" fill-rule="nonzero"/>
		<path id="Vector" d="M334.5 449.01C334.5 449.01 329.9 443 326.7 441.102C323.5 439.204 318 437.095 315.4 435.513C312.8 433.932 307.6 430.241 306.1 432.666C304.6 435.092 306.9 439.309 310.5 441.524C314.1 443.843 319.7 453.966 325 454.704C330.3 455.442 332.6 455.653 332.6 455.653L334.5 449.01Z" fill="#DF8E89" fill-opacity="1.000000" fill-rule="nonzero"/>
		<path id="Vector" d="M511.6 487.286C511.6 487.286 513.9 486.337 517.3 489.922C520.7 493.507 523.9 501.732 525.1 504.79C526.3 507.848 526.6 510.906 527.7 513.014C528.8 515.229 529.1 517.548 527.7 518.392C526.3 519.236 522.1 515.861 518.8 512.382C515.5 508.902 511.5 506.582 509.4 501.837C507.4 497.303 507.6 493.613 507.6 493.613L511.6 487.286Z" fill="#DF8E89" fill-opacity="1.000000" fill-rule="nonzero"/>
		<path id="Vector" d="M336 444.16C336 444.16 351.6 447.112 357.1 448.167C362.6 449.221 369.1 450.486 369.1 450.486C369.1 450.486 384.6 429.608 395.2 418.115C405.8 406.727 411.6 398.819 427.3 398.819C447.5 398.819 471.2 425.812 484.1 441.734C499 460.187 513.2 484.755 513.2 484.755L505.4 497.198C505.4 497.198 487.3 482.752 480.1 478.534C472.9 474.317 462.4 468.728 462.4 468.728C462.4 468.728 466.2 479.589 468.8 491.715C471.4 503.841 471.8 511.011 471.8 511.011C471.8 511.011 455.1 522.926 425.7 524.719C396.3 526.511 377.5 519.974 377.5 519.974C377.5 519.974 379.1 508.059 380.8 500.256C382.5 492.558 384.4 485.704 384.4 485.704C384.4 485.704 373.8 486.654 360.1 481.592C342.3 475.055 331.2 460.398 331.2 460.398L336 444.16Z" fill="#7B6DCF" fill-opacity="1.000000" fill-rule="nonzero"/>
		<path id="Vector" d="M384.3 485.81C384.3 485.81 381.8 495.3 381.1 498.674C380.4 502.048 379.6 506.266 379.6 506.266C379.6 506.266 411 473.895 417.8 465.987C424.6 458.078 436.7 444.054 436.4 431.717C436.1 419.38 433.8 416.639 433.8 416.639C433.8 416.639 435.2 424.547 432.5 432.666C428.7 443.949 412.9 458.605 405.4 465.987C399.2 472.208 384.3 485.81 384.3 485.81Z" fill="#6A5AC1" fill-opacity="1.000000" fill-rule="nonzero"/>
		<path id="Vector" d="M453.4 435.619C453.4 435.619 457.5 448.061 459.1 453.86C460.7 459.66 462.3 468.728 462.3 468.728L468.3 471.997C468.3 471.997 464 458.816 461.3 451.541C458.6 444.265 453.4 435.619 453.4 435.619Z" fill="#6A5AC1" fill-opacity="1.000000" fill-rule="nonzero"/>
		<path id="Vector" d="M456.8 477.164L456.3 481.698L459.5 484.65L455.4 485.494L453.7 489.606L451.6 485.704L447.3 485.388L450.2 482.014L449.3 477.691L453.1 479.483L456.8 477.164Z" fill="#FF6ED9" fill-opacity="1.000000" fill-rule="nonzero"/>
		<path id="Vector" d="M471.7 511.116C471.7 511.116 471.6 509.324 471.2 505.95L469.2 508.48L465.7 508.164L467.6 511.327L466.3 514.385C469.9 512.382 471.7 511.116 471.7 511.116Z" fill="#FF6ED9" fill-opacity="1.000000" fill-rule="nonzero"/>
		<path id="Vector" d="M388.4 428.976L390 431.928L391.3 428.765L394.5 428.027L392 425.812L392.4 422.438L390.4 423.704C389 425.285 387.6 426.972 386.2 428.765L388.4 428.976Z" fill="#FF6ED9" fill-opacity="1.000000" fill-rule="nonzero"/>
		<path id="Vector" d="M389 522.821L392.5 521.977L389.2 519.13L389.6 514.702L386 517.127L382.1 515.44L383.2 519.763L381.9 521.344C383.7 521.766 386.1 522.293 389 522.821Z" fill="#FF6ED9" fill-opacity="1.000000" fill-rule="nonzero"/>
		<path id="Vector" d="M439.4 508.164L441.8 508.902L443.7 507.11L443.8 509.746L446 511.116L443.7 512.065L443.1 514.596L441.5 512.593L439.1 512.804L440.4 510.589L439.4 508.164Z" fill="#FF6ED9" fill-opacity="1.000000" fill-rule="nonzero"/>
		<path id="Vector" d="M391.4 457.024L394.5 457.867L397 455.653L397.2 459.133L399.9 460.82L396.9 462.085L396.2 465.354L394.1 462.718L390.9 463.034L392.7 460.187L391.4 457.024Z" fill="#FF6ED9" fill-opacity="1.000000" fill-rule="nonzero"/>
		<path id="Vector" d="M501.1 465.354L500.8 465.565L497.7 464.721L499 467.884L497.3 470.731L500.5 470.415L502.5 473.051L503.2 469.783L503.8 469.572C503 468.201 502.1 466.83 501.1 465.354Z" fill="#FF6ED9" fill-opacity="1.000000" fill-rule="nonzero"/>
		<path id="Vector" d="M426.7 463.772L428.4 464.194L429.7 463.034L429.8 464.827L431.3 465.776L429.7 466.408L429.3 468.201L428.2 466.83L426.5 467.041L427.4 465.459L426.7 463.772Z" fill="#FF6ED9" fill-opacity="1.000000" fill-rule="nonzero"/>
		<path id="Vector" d="M368 475.687L369.4 474.633L369.4 472.84L370.8 473.895L372.4 473.262L371.9 475.055L373 476.531L371.2 476.531L370.2 478.007L369.7 476.215L368 475.687Z" fill="#FF6ED9" fill-opacity="1.000000" fill-rule="nonzero"/>
		<path id="Vector" d="M500.9 488.868L502.6 489.29L503.9 488.13L504 489.922L505.5 490.871L503.9 491.609L503.5 493.402L502.4 491.926L500.7 492.137L501.6 490.555L500.9 488.868Z" fill="#FF6ED9" fill-opacity="1.000000" fill-rule="nonzero"/>
		<path id="Vector" d="M426.7 407.149L428.4 407.676L429.7 406.411L429.8 408.309L431.3 409.258L429.7 409.89L429.3 411.683L428.2 410.312L426.5 410.418L427.4 408.836L426.7 407.149Z" fill="#FF6ED9" fill-opacity="1.000000" fill-rule="nonzero"/>
		<path id="Vector" d="M470.9 440.047L472.6 440.469L473.9 439.309L474 441.102L475.5 442.051L473.9 442.683L473.5 444.476L472.4 443.105L470.6 443.316L471.6 441.734L470.9 440.047Z" fill="#FF6ED9" fill-opacity="1.000000" fill-rule="nonzero"/>
		<path id="Vector" d="M346.6 457.551L349.5 458.395L351.8 456.286L352 459.449L354.6 461.136L351.8 462.296L351.1 465.459L349.2 462.929L346.1 463.245L347.8 460.503L346.6 457.551Z" fill="#FF6ED9" fill-opacity="1.000000" fill-rule="nonzero"/>
		<path id="Vector" d="M408.6 489.606L413.8 493.824L419.9 491.609L417.8 498.041L421.6 503.525L415.2 503.419L411.4 509.008L409.5 502.47L403.4 500.361L408.7 496.46L408.6 489.606Z" fill="#FF6ED9" fill-opacity="1.000000" fill-rule="nonzero"/>
		<path id="Vector" d="M411 422.438L415.1 425.707L420 424.02L418.3 429.081L421.4 433.51L416.2 433.404L413.2 437.728L411.7 432.561L406.9 430.979L411.1 427.816L411 422.438Z" fill="#FF6ED9" fill-opacity="1.000000" fill-rule="nonzero"/>
		<path id="Vector" d="M480.1 467.568L477.3 463.034L475.6 468.095L470.6 469.466L474.6 472.84L474.5 475.476C475.2 475.898 475.9 476.215 476.5 476.636L478.6 475.16L483.4 477.164L482 471.997L485.3 467.779L480.1 467.568Z" fill="#FF6ED9" fill-opacity="1.000000" fill-rule="nonzero"/>
		<path id="Vector" d="M447.9 422.438L453.6 419.169L459.4 422.227L458.2 415.479L459 414.635C456.5 412.421 453.9 410.312 451.3 408.414L450.7 409.89L444.3 411.05L449 415.69L447.9 422.438Z" fill="#FF6ED9" fill-opacity="1.000000" fill-rule="nonzero"/>
		<path id="Vector" d="M885.5 493.507C885.5 493.507 881.7 532.522 896.5 578.179C911.3 623.836 929.3 666.33 929.3 666.33L944.6 666.33C944.6 666.33 947.1 626.156 946.6 599.795C946.1 573.434 945.8 553.61 945.8 553.61C945.8 553.61 957.7 565.842 964.3 570.27C970.9 574.699 978.7 574.383 987.8 572.485C996.9 570.587 1041.7 558.882 1041.7 558.882L1040.7 545.702C1040.7 545.702 1021.2 539.059 1009.1 536.739C997 534.419 983.3 529.885 983.3 529.885C983.3 529.885 977.4 512.276 970.4 497.62C963.4 482.963 960.6 478.218 960.6 478.218L885.5 493.507Z" fill="#7B6DCF" fill-opacity="1.000000" fill-rule="nonzero"/>
		<path id="Vector" d="M945.8 553.61C945.8 553.61 936.9 546.018 930.9 539.164C924.9 532.311 920.3 524.824 920.3 524.824C920.3 524.824 926.7 540.535 934.9 549.076C942.5 557.09 945.9 559.093 945.9 559.093L945.8 553.61Z" fill="#6A5AC1" fill-opacity="1.000000" fill-rule="nonzero"/>
		<path id="Vector" d="M938.3 578.495L930.1 570.798L940.5 571.219L938.3 578.495Z" fill="#FF6ED9" fill-opacity="1.000000" fill-rule="nonzero"/>
		<path id="Vector" d="M916.9 556.352L920.9 549.603L921.8 557.09L916.9 556.352Z" fill="#FF6ED9" fill-opacity="1.000000" fill-rule="nonzero"/>
		<path id="Vector" d="M938.1 651.357L935.3 643.87L941.6 647.561L938.1 651.357Z" fill="#FF6ED9" fill-opacity="1.000000" fill-rule="nonzero"/>
		<path id="Vector" d="M952.1 508.902L953.9 517.232L946.4 514.491L952.1 508.902Z" fill="#FF6ED9" fill-opacity="1.000000" fill-rule="nonzero"/>
		<path id="Vector" d="M920.8 628.792L925.6 628.159L923.6 632.798L920.8 628.792Z" fill="#FF6ED9" fill-opacity="1.000000" fill-rule="nonzero"/>
		<path id="Vector" d="M972.3 542.328L977.2 541.59L975.1 546.335L972.3 542.328Z" fill="#FF6ED9" fill-opacity="1.000000" fill-rule="nonzero"/>
		<path id="Vector" d="M992.2 550.974L995.8 544.437L999.4 550.447L992.2 550.974Z" fill="#FF6ED9" fill-opacity="1.000000" fill-rule="nonzero"/>
		<path id="Vector" d="M1030.3 554.77L1035.3 549.814L1038.1 554.348L1030.3 554.77Z" fill="#FF6ED9" fill-opacity="1.000000" fill-rule="nonzero"/>
		<path id="Vector" d="M923.5 505.317L924.2 500.15L927.9 503.63L923.5 505.317Z" fill="#FF6ED9" fill-opacity="1.000000" fill-rule="nonzero"/>
		<path id="Vector" d="M908.7 588.618L916.8 597.264L905.8 599.9L908.7 588.618Z" fill="#FF6ED9" fill-opacity="1.000000" fill-rule="nonzero"/>
		<path id="Vector" d="M954.2 535.896L950.4 547.389L943.3 538.11L954.2 535.896Z" fill="#FF6ED9" fill-opacity="1.000000" fill-rule="nonzero"/>
		<path id="Vector" d="M1009.8 541.59L1019.1 550.763L1008.7 555.614L1009.8 541.59Z" fill="#FF6ED9" fill-opacity="1.000000" fill-rule="nonzero"/>
		<path id="Vector" d="M902.5 519.025L909.5 528.198L912 519.025L902.5 519.025Z" fill="#FF6ED9" fill-opacity="1.000000" fill-rule="nonzero"/>
		<path id="Vector" d="M970.4 497.62C970.2 497.092 969.9 496.671 969.7 496.143L966.5 493.613L967.1 511.749L974.2 505.95C973 503.208 971.7 500.361 970.4 497.62Z" fill="#FF6ED9" fill-opacity="1.000000" fill-rule="nonzero"/>
		<path id="Vector" d="M885.1 506.688C885.1 509.113 885.2 511.749 885.3 514.702L890 515.44L885.5 506.371L885.1 506.688Z" fill="#FF6ED9" fill-opacity="1.000000" fill-rule="nonzero"/>
		<path id="Vector" d="M946.6 609.495C946.6 606.121 946.6 602.852 946.5 599.795C946.5 599.162 946.5 598.529 946.5 597.897L931.1 603.063L946.6 609.495Z" fill="#FF6ED9" fill-opacity="1.000000" fill-rule="nonzero"/>
		<path id="Vector" d="M987.1 559.093L975.2 567.634L984.3 573.223C985.4 573.012 986.5 572.801 987.7 572.59C988.6 572.379 990 572.063 991.6 571.747L987.1 559.093Z" fill="#FF6ED9" fill-opacity="1.000000" fill-rule="nonzero"/>
		<path id="Vector" d="M891.6 560.78L902.2 560.78L892.6 539.903L889.7 552.45C890.4 555.192 891 557.933 891.6 560.78Z" fill="#FF6ED9" fill-opacity="1.000000" fill-rule="nonzero"/>
		<path id="Vector" d="M954.4 330.491C954.4 347.496 941.327 361.281 925.2 361.281C909.073 361.281 896 347.496 896 330.491C896 313.487 909.073 299.702 925.2 299.702C941.327 299.702 954.4 313.487 954.4 330.491Z" fill="#8C503E" fill-opacity="1.000000" fill-rule="evenodd"/>
		<path id="Vector" d="M1041.5 558.882C1041.5 558.882 1044.1 569.849 1045.7 575.121C1047.3 580.288 1050.3 586.825 1052.7 586.93C1055.2 587.036 1055.8 577.335 1054.4 562.573C1053 547.811 1054.2 545.807 1046.1 545.913C1042.5 545.913 1040.6 545.702 1040.6 545.702L1041.5 558.882Z" fill="#4E3734" fill-opacity="1.000000" fill-rule="nonzero"/>
		<path id="Vector" d="M929.3 666.33C929.3 666.33 918.9 668.649 913.2 670.969C907.5 673.289 903.1 675.82 903.1 678.772C903.1 681.092 913.5 680.354 929.7 680.354C946.3 680.459 951 680.881 948.1 672.024C947.1 668.966 944.6 666.224 944.6 666.224L929.3 666.224L929.3 666.33Z" fill="#4E3734" fill-opacity="1.000000" fill-rule="nonzero"/>
		<path id="Vector" d="M871.1 289.79C871.1 289.79 868.7 282.304 869 278.191C869.3 274.079 870.5 267.752 870.7 264.378C870.9 261.004 870.7 254.15 873.5 253.939C876.3 253.728 878.4 258.051 878.3 262.691C878.2 267.331 883.3 277.98 881 283.463C878.7 288.946 877.6 291.266 877.6 291.266L871.1 289.79Z" fill="#8C503E" fill-opacity="1.000000" fill-rule="nonzero"/>
		<path id="Vector" d="M1042.1 376.887C1042.1 376.887 1049.2 374.356 1052.1 371.72C1055 369.084 1059.1 364.233 1061.6 362.019C1064.1 359.805 1069.4 355.798 1067.8 353.373C1066.2 350.947 1061.7 351.685 1058.2 354.638C1054.8 357.485 1043.6 359.594 1040.8 364.76C1038 369.927 1037 372.352 1037 372.352L1042.1 376.887Z" fill="#8C503E" fill-opacity="1.000000" fill-rule="nonzero"/>
		<path id="Vector" d="M865.3 287.892L881.8 291.899C881.8 291.899 880.2 334.287 881.5 340.087C883.3 347.679 913.3 372.774 913.3 372.774C913.3 372.774 945.8 373.091 956.3 377.308C966.8 381.526 977.8 389.223 987.8 389.962C997.8 390.7 1034.6 367.818 1034.6 367.818L1046.4 380.472C1046.4 380.472 1035.9 395.128 1028.6 402.404C1019.1 411.894 1003.6 425.074 992.8 426.656C982 428.238 948.5 415.057 948.5 415.057C948.5 415.057 956 442.473 961.7 454.388C967.5 466.303 973 474.949 973 474.949C973 474.949 947.1 491.293 925.2 495.827C903.3 500.361 878.5 495.827 878.5 495.827C878.5 495.827 871.7 476.531 877 445.214C882.3 413.897 886 406.2 886 406.2C886 406.2 859.7 368.557 855.5 353.162C851.3 337.767 865.3 287.892 865.3 287.892Z" fill="#FF6ED9" fill-opacity="1.000000" fill-rule="nonzero"/>
		<path id="Vector" d="M934.8 399.241C934.8 399.241 939.6 406.938 943 410.101C946.3 413.159 948.6 415.057 948.6 415.057L953.7 432.35C953.7 432.35 944.4 425.074 940.9 417.904C937.2 410.629 934.8 399.241 934.8 399.241Z" fill="#FF5ED2" fill-opacity="1.000000" fill-rule="nonzero"/>
		<path id="Vector" d="M886 405.989C886 405.989 889.6 395.339 895.9 387.536C903.1 378.785 913.2 372.774 913.2 372.774L909.9 370.033C909.9 370.033 900.8 373.723 892.7 383.213C885.7 391.438 882.8 401.56 882.8 401.56L886 405.989Z" fill="#FF5ED2" fill-opacity="1.000000" fill-rule="nonzero"/>
		<path id="Vector" d="M954.5 330.491C954.5 313.409 941.4 299.702 925.3 299.702C918.7 299.702 912.5 302.021 907.6 306.028C907.6 306.028 900.5 316.045 910.3 322.478C920.1 328.91 926.9 324.165 926.9 324.165C926.9 324.165 929.4 326.484 929.2 330.597C928.7 338.294 918.9 340.087 919.1 349.998C919.4 363.706 933.9 361.597 933.9 368.873C933.9 375.199 926.2 379.101 925.5 387.536C924.8 396.183 928.7 402.615 934.7 403.986C954.3 408.52 960.5 384.479 961.5 377.73C962.5 370.982 960.1 357.907 956.5 345.148C955.4 341.036 954.5 330.491 954.5 330.491Z" fill="#FFFFFF" fill-opacity="1.000000" fill-rule="nonzero"/>
		<path id="Vector" d="M846.936 256.828L887.034 229.78L903.902 257.582L863.803 284.63L846.936 256.828Z" fill="#4F3D9D" fill-opacity="1.000000" fill-rule="evenodd"/>
		<path id="Vector" d="M883.1 228L886.7 229.687L899.8 257.208L864 282.831L844.3 287.892L844.3 254.994L883.1 228Z" fill="#FFFFFF" fill-opacity="1.000000" fill-rule="nonzero"/>
		<path id="Vector" d="M883.3 261.637L843.2 288.736L843.1 254.994L883.1 228L883.3 261.637Z" fill="#5441AF" fill-opacity="1.000000" fill-rule="nonzero"/>
		<path id="Vector" d="M883.1 228L886.9 229.898L887.1 230.531L883.1 228.949L883.1 228Z" fill="#4F3D9D" fill-opacity="1.000000" fill-rule="nonzero"/>
		<path id="Vector" d="M885.9 230.003L894.8 256.786L856.6 284.729L864 282.831L899.8 257.208L887.1 230.531L885.9 230.003Z" fill="#F7F7F7" fill-opacity="1.000000" fill-rule="nonzero"/>
		<path id="Vector" d="M876.5 281.038L877.2 273.341L880.1 271.337L880.9 274.501L876.5 281.038Z" fill="#8C503E" fill-opacity="1.000000" fill-rule="nonzero"/>
		<rect id="Rectangle 7.16" x="70.282471" y="486.750610" width="5.129355" height="17.497837" transform="rotate(135.281 70.282471 486.750610)" fill="#FFEFF0" fill-opacity="1.000000"/>
	</g>
	<path id="%" d="M749.042 239.498Q751.231 240.679 754.056 240.679Q756.951 240.679 759.159 239.447Q760.48 238.709 761.556 237.529Q761.924 237.127 762.245 236.691Q764.441 233.707 764.441 229.106Q764.441 224.471 762.224 221.479Q761.912 221.058 761.556 220.669Q760.48 219.489 759.159 218.752Q756.951 217.52 754.056 217.52Q751.231 217.52 749.042 218.7Q747.657 219.448 746.526 220.669Q746.152 221.076 745.826 221.518Q743.626 224.501 743.626 229.106Q743.626 233.677 745.805 236.652Q746.14 237.109 746.526 237.529Q747.657 238.75 749.042 239.498ZM786.224 218.003L779.075 218.003L750.394 260L757.542 260L786.224 218.003ZM755.918 235.321Q755.103 235.757 754.056 235.757Q753.186 235.757 752.466 235.428Q751.55 235.009 750.877 234.058Q749.676 232.344 749.676 229.106Q749.676 225.854 750.877 224.155Q751.557 223.185 752.486 222.764Q753.198 222.441 754.056 222.441Q755.089 222.441 755.896 222.869Q756.69 223.29 757.264 224.126Q758.436 225.796 758.436 229.106Q758.436 232.402 757.264 234.087Q756.698 234.904 755.918 235.321ZM778.177 259.591Q780.169 260.483 782.562 260.483Q785.387 260.483 787.575 259.303Q788.961 258.555 790.091 257.334Q790.484 256.909 790.824 256.446Q793.006 253.472 793.006 248.896Q793.006 244.356 790.845 241.39Q790.496 240.911 790.091 240.474Q788.961 239.252 787.575 238.505Q785.387 237.324 782.562 237.324Q780.169 237.324 778.177 238.217Q777.668 238.445 777.186 238.73Q776.581 239.091 776.043 239.534Q774.485 240.817 773.494 242.788Q772.176 245.425 772.176 248.896Q772.176 252.383 773.494 255.02Q774.463 256.936 775.974 258.211Q776.542 258.689 777.186 259.077Q777.668 259.363 778.177 259.591ZM784.309 255.171Q783.534 255.562 782.562 255.562Q781.666 255.562 780.93 255.219Q780.04 254.806 779.383 253.892Q778.182 252.207 778.182 248.896Q778.182 245.601 779.383 243.931Q780.048 242.998 780.951 242.582Q781.679 242.246 782.562 242.246Q783.534 242.246 784.309 242.637Q785.157 243.065 785.77 243.96Q786.941 245.659 786.941 248.896Q786.941 252.134 785.77 253.848Q785.157 254.743 784.309 255.171Z" fill="#534FD2" fill-opacity="1.000000" fill-rule="evenodd"/>
	<path id="%" d="M744.042 234.498Q746.231 235.679 749.056 235.679Q751.951 235.679 754.159 234.447Q755.48 233.709 756.556 232.529Q756.924 232.127 757.245 231.691Q759.441 228.707 759.441 224.106Q759.441 219.471 757.224 216.479Q756.912 216.058 756.556 215.669Q755.48 214.489 754.159 213.752Q751.951 212.52 749.056 212.52Q746.231 212.52 744.042 213.7Q742.657 214.448 741.526 215.669Q741.152 216.076 740.826 216.518Q738.626 219.501 738.626 224.106Q738.626 228.677 740.805 231.652Q741.14 232.109 741.526 232.529Q742.657 233.75 744.042 234.498ZM781.224 213.003L774.075 213.003L745.394 255L752.542 255L781.224 213.003ZM750.918 230.321Q750.103 230.757 749.056 230.757Q748.186 230.757 747.466 230.428Q746.55 230.009 745.877 229.058Q744.676 227.344 744.676 224.106Q744.676 220.854 745.877 219.155Q746.557 218.185 747.486 217.764Q748.198 217.441 749.056 217.441Q750.089 217.441 750.896 217.869Q751.69 218.29 752.264 219.126Q753.436 220.796 753.436 224.106Q753.436 227.402 752.264 229.087Q751.698 229.904 750.918 230.321ZM773.177 254.591Q775.169 255.483 777.562 255.483Q780.387 255.483 782.575 254.303Q783.961 253.555 785.091 252.334Q785.484 251.909 785.824 251.446Q788.006 248.472 788.006 243.896Q788.006 239.356 785.845 236.39Q785.496 235.911 785.091 235.474Q783.961 234.252 782.575 233.505Q780.387 232.324 777.562 232.324Q775.169 232.324 773.177 233.217Q772.668 233.445 772.186 233.73Q771.581 234.091 771.043 234.534Q769.485 235.817 768.494 237.788Q767.176 240.425 767.176 243.896Q767.176 247.383 768.494 250.02Q769.463 251.936 770.974 253.211Q771.542 253.689 772.186 254.077Q772.668 254.363 773.177 254.591ZM779.309 250.171Q778.534 250.562 777.562 250.562Q776.666 250.562 775.93 250.219Q775.04 249.806 774.383 248.892Q773.182 247.207 773.182 243.896Q773.182 240.601 774.383 238.931Q775.048 237.998 775.951 237.582Q776.679 237.246 777.562 237.246Q778.534 237.246 779.309 237.637Q780.157 238.065 780.77 238.96Q781.941 240.659 781.941 243.896Q781.941 247.134 780.77 248.848Q780.157 249.743 779.309 250.171Z" fill="#FFFFFF" fill-opacity="1.000000" fill-rule="evenodd"/>
	<path id="60" d="M585.065 187.686C578.4 184.279 571.187 182.576 563.426 182.576Q548.141 182.576 538.144 189.641Q539.95 180.901 545.215 175.589Q546.295 174.5 547.519 173.556C552.318 169.853 558.42 168.001 565.826 168.001C574.92 168.001 582.622 170.238 588.931 174.711L604.394 144.718C599.536 141.549 593.641 139.09 586.709 137.342Q576.356 134.676 564.893 134.676Q543.787 134.676 527.835 143.074Q520.805 146.766 515.155 151.958Q508.02 158.516 503.085 167.468Q494.288 183.464 494.288 205.326Q494.288 225.676 501.93 239.717Q506.442 247.979 513.074 253.842Q517.677 257.91 523.303 260.823C532.456 265.563 543.165 267.933 555.428 267.933Q569.825 267.933 581.644 262.467C589.524 258.824 595.729 253.61 600.262 246.827C604.824 240.014 607.104 232.178 607.104 223.321Q607.104 214.318 603.726 206.841Q602.603 204.355 601.106 202.038Q598.482 197.975 595.085 194.721Q590.715 190.535 585.065 187.686ZM642.316 260.023C650.995 265.296 660.978 267.933 672.264 267.933C683.551 267.933 693.533 265.296 702.213 260.023C710.892 254.721 717.69 247.064 722.608 237.051C727.525 227.039 729.984 215.116 729.984 201.282C729.984 187.449 727.525 175.54 722.608 165.558Q716.775 153.681 707.413 146.251Q704.937 144.285 702.213 142.63C693.533 137.327 683.551 134.676 672.264 134.676C660.978 134.676 650.995 137.327 642.316 142.63Q639.716 144.215 637.341 146.086Q627.863 153.549 621.966 165.558C617.048 175.54 614.59 187.449 614.59 201.282C614.59 215.116 617.048 227.039 621.966 237.051C626.883 247.064 633.666 254.721 642.316 260.023ZM686.839 201.282C686.839 222.758 681.981 233.497 672.264 233.497C662.578 233.497 657.735 222.758 657.735 201.282Q657.735 174.513 667.767 169.988Q669.808 169.068 672.264 169.068C681.981 169.068 686.839 179.806 686.839 201.282ZM561.96 234.785C559.561 237.096 556.421 238.251 552.54 238.251Q548.03 238.251 544.834 236.202Q543.873 235.586 543.031 234.785Q542.255 234.038 541.647 233.173Q539.432 230.026 539.432 225.321C539.432 221.322 540.632 218.137 543.031 215.768C545.46 213.398 548.63 212.213 552.54 212.213C556.421 212.213 559.561 213.398 561.96 215.768C564.389 218.137 565.604 221.322 565.604 225.321C565.604 229.32 564.389 232.475 561.96 234.785Z" fill="#534FD2" fill-opacity="1.000000" fill-rule="evenodd"/>
	<path id="60" d="M572.065 174.686C565.4 171.279 558.187 169.576 550.426 169.576Q535.141 169.576 525.144 176.641Q526.95 167.901 532.215 162.589Q533.295 161.5 534.519 160.556C539.318 156.853 545.42 155.001 552.826 155.001C561.92 155.001 569.622 157.238 575.931 161.711L591.394 131.718C586.536 128.549 580.641 126.09 573.709 124.342Q563.356 121.676 551.893 121.676Q530.787 121.676 514.835 130.074Q507.805 133.766 502.155 138.958Q495.02 145.516 490.085 154.468Q481.288 170.464 481.288 192.326Q481.288 212.676 488.93 226.717Q493.442 234.979 500.074 240.842Q504.677 244.91 510.303 247.823C519.456 252.563 530.165 254.933 542.428 254.933Q556.825 254.933 568.644 249.467C576.524 245.824 582.729 240.61 587.262 233.827C591.824 227.014 594.104 219.178 594.104 210.321Q594.104 201.318 590.726 193.841Q589.603 191.355 588.106 189.038Q585.482 184.975 582.085 181.721Q577.715 177.535 572.065 174.686ZM629.316 247.023C637.995 252.296 647.978 254.933 659.264 254.933C670.551 254.933 680.533 252.296 689.213 247.023C697.892 241.721 704.69 234.064 709.608 224.051C714.525 214.039 716.984 202.116 716.984 188.282C716.984 174.449 714.525 162.54 709.608 152.558Q703.775 140.681 694.413 133.251Q691.937 131.285 689.213 129.63C680.533 124.327 670.551 121.676 659.264 121.676C647.978 121.676 637.995 124.327 629.316 129.63Q626.716 131.215 624.341 133.086Q614.863 140.549 608.966 152.558C604.048 162.54 601.59 174.449 601.59 188.282C601.59 202.116 604.048 214.039 608.966 224.051C613.883 234.064 620.666 241.721 629.316 247.023ZM673.839 188.282C673.839 209.758 668.981 220.497 659.264 220.497C649.578 220.497 644.735 209.758 644.735 188.282Q644.735 161.513 654.767 156.988Q656.808 156.068 659.264 156.068C668.981 156.068 673.839 166.806 673.839 188.282ZM548.96 221.785C546.561 224.096 543.421 225.251 539.54 225.251Q535.03 225.251 531.834 223.202Q530.873 222.586 530.031 221.785Q529.255 221.038 528.647 220.173Q526.432 217.026 526.432 212.321C526.432 208.322 527.632 205.137 530.031 202.768C532.46 200.398 535.63 199.213 539.54 199.213C543.421 199.213 546.561 200.398 548.96 202.768C551.389 205.137 552.604 208.322 552.604 212.321C552.604 216.32 551.389 219.475 548.96 221.785Z" fill="#FFFFFF" fill-opacity="1.000000" fill-rule="evenodd"/>
	<path id="up to" d="M434.353 166.971Q436.36 166.458 437.737 165.447L435.217 158.841Q434.893 159.092 434.539 159.291Q433.199 160.042 431.438 160.042Q429.836 160.042 428.836 159.266Q428.638 159.112 428.464 158.929Q428.435 158.897 428.407 158.865Q427.424 157.758 427.424 155.779L427.424 142.64L435.466 142.64L435.466 135.447L427.424 135.447L427.424 127.581L418.064 127.581L418.064 135.447L413.083 135.447L413.083 142.64L418.064 142.64L418.064 155.896Q418.064 161.005 420.595 163.901Q420.888 164.235 421.213 164.539Q421.306 164.626 421.402 164.711Q424.533 167.483 430.12 167.483Q432.346 167.483 434.353 166.971ZM383.981 135.436Q381.038 134.246 377.614 134.246C373.18 134.246 369.801 135.643 367.477 138.436L367.477 134.715L358.541 134.715L358.541 178.646L367.902 178.646L367.902 163.587C370.265 166.185 373.502 167.483 377.614 167.483Q381.038 167.483 383.981 166.294Q384.916 165.916 385.802 165.418Q387.476 164.475 388.821 163.188Q390.443 161.638 391.588 159.588Q393.698 155.838 393.698 150.857Q393.698 145.877 391.588 142.127Q390.432 140.058 388.79 138.501Q387.457 137.237 385.802 136.312Q384.916 135.814 383.981 135.436ZM448.623 165.575Q452.521 167.483 457.353 167.483Q462.374 167.483 466.335 165.434Q466.407 165.397 466.479 165.359Q468.968 164.038 470.786 162.09Q471.91 160.886 472.778 159.441Q473.268 158.63 473.653 157.772Q475.063 154.631 475.063 150.857Q475.063 147.084 473.653 143.943Q473.268 143.085 472.778 142.273Q471.896 140.805 470.748 139.587Q468.942 137.669 466.479 136.37Q466.407 136.332 466.335 136.295Q462.374 134.246 457.353 134.246Q452.521 134.246 448.623 136.155Q448.409 136.259 448.198 136.37Q445.707 137.678 443.884 139.615Q442.747 140.822 441.869 142.273Q441.401 143.053 441.03 143.876Q439.599 147.044 439.599 150.857Q439.599 154.671 441.03 157.839Q441.401 158.662 441.869 159.441Q442.732 160.869 443.846 162.062Q445.682 164.028 448.198 165.359Q448.409 165.47 448.623 165.575ZM349.841 167L349.841 134.715L340.48 134.715L340.48 150.682Q340.48 155.003 338.43 157.2Q337.778 157.898 336.992 158.373Q335.321 159.383 333.039 159.383Q330.348 159.383 328.766 158.059Q326.506 156.167 326.506 151.575L326.506 134.715L317.146 134.715L317.146 152.967Q317.146 159.909 320.612 163.562Q320.737 163.694 320.866 163.821Q321.524 164.469 322.264 165.002Q325.711 167.483 330.944 167.483Q333.642 167.483 335.997 166.585Q336.264 166.483 336.525 166.37Q337.847 165.799 338.98 164.971Q340.057 164.183 340.964 163.162L340.964 167L349.841 167ZM379.986 158.855Q378.247 159.793 376.002 159.793Q373.771 159.793 372.035 158.867Q370.966 158.297 370.084 157.376Q369.722 156.993 369.417 156.569Q367.784 154.301 367.784 150.857Q367.784 147.448 369.396 145.189Q369.71 144.75 370.084 144.354Q370.979 143.413 372.067 142.836Q373.792 141.922 376.002 141.922Q378.226 141.922 379.953 142.848Q381.025 143.423 381.906 144.354Q382.299 144.767 382.625 145.227Q384.22 147.477 384.22 150.857Q384.22 154.272 382.604 156.531Q382.286 156.976 381.906 157.376Q381.038 158.287 379.986 158.855ZM461.32 158.867Q459.584 159.793 457.353 159.793Q455.183 159.793 453.469 158.91Q452.347 158.332 451.42 157.376Q451.002 156.942 450.659 156.456Q449.076 154.216 449.076 150.857Q449.076 147.533 450.638 145.302Q450.99 144.8 451.42 144.354Q452.361 143.378 453.502 142.794Q455.204 141.922 457.353 141.922Q459.563 141.922 461.288 142.836Q462.376 143.413 463.271 144.354Q463.664 144.767 463.99 145.227Q465.585 147.477 465.585 150.857Q465.585 154.272 463.97 156.531Q463.651 156.976 463.271 157.376Q462.389 158.297 461.32 158.867Z" fill="#534FD2" fill-opacity="1.000000" fill-rule="evenodd"/>
	<path id="up to" d="M429.353 161.971Q431.36 161.458 432.737 160.447L430.217 153.841Q429.893 154.092 429.539 154.291Q428.199 155.042 426.438 155.042Q424.836 155.042 423.836 154.266Q423.638 154.112 423.464 153.929Q423.435 153.897 423.407 153.865Q422.424 152.758 422.424 150.779L422.424 137.64L430.466 137.64L430.466 130.447L422.424 130.447L422.424 122.581L413.064 122.581L413.064 130.447L408.083 130.447L408.083 137.64L413.064 137.64L413.064 150.896Q413.064 156.005 415.595 158.901Q415.888 159.235 416.213 159.539Q416.306 159.626 416.402 159.711Q419.533 162.483 425.12 162.483Q427.346 162.483 429.353 161.971ZM378.981 130.436Q376.038 129.246 372.614 129.246C368.18 129.246 364.801 130.643 362.477 133.436L362.477 129.715L353.541 129.715L353.541 173.646L362.902 173.646L362.902 158.587C365.265 161.185 368.502 162.483 372.614 162.483Q376.038 162.483 378.981 161.294Q379.916 160.916 380.802 160.418Q382.476 159.475 383.821 158.188Q385.443 156.638 386.588 154.588Q388.698 150.838 388.698 145.857Q388.698 140.877 386.588 137.127Q385.432 135.058 383.79 133.501Q382.457 132.237 380.802 131.312Q379.916 130.814 378.981 130.436ZM443.623 160.575Q447.521 162.483 452.353 162.483Q457.374 162.483 461.335 160.434Q461.407 160.397 461.479 160.359Q463.968 159.038 465.786 157.09Q466.91 155.886 467.778 154.441Q468.268 153.63 468.653 152.772Q470.063 149.631 470.063 145.857Q470.063 142.084 468.653 138.943Q468.268 138.085 467.778 137.273Q466.896 135.805 465.748 134.587Q463.942 132.669 461.479 131.37Q461.407 131.332 461.335 131.295Q457.374 129.246 452.353 129.246Q447.521 129.246 443.623 131.155Q443.409 131.259 443.198 131.37Q440.707 132.678 438.884 134.615Q437.747 135.822 436.869 137.273Q436.401 138.053 436.03 138.876Q434.599 142.044 434.599 145.857Q434.599 149.671 436.03 152.839Q436.401 153.662 436.869 154.441Q437.732 155.869 438.846 157.062Q440.682 159.028 443.198 160.359Q443.409 160.47 443.623 160.575ZM344.841 162L344.841 129.715L335.48 129.715L335.48 145.682Q335.48 150.003 333.43 152.2Q332.778 152.898 331.992 153.373Q330.321 154.383 328.039 154.383Q325.348 154.383 323.766 153.059Q321.506 151.167 321.506 146.575L321.506 129.715L312.146 129.715L312.146 147.967Q312.146 154.909 315.612 158.562Q315.737 158.694 315.866 158.821Q316.524 159.469 317.264 160.002Q320.711 162.483 325.944 162.483Q328.642 162.483 330.997 161.585Q331.264 161.483 331.525 161.37Q332.847 160.799 333.98 159.971Q335.057 159.183 335.964 158.162L335.964 162L344.841 162ZM374.986 153.855Q373.247 154.793 371.002 154.793Q368.771 154.793 367.035 153.867Q365.966 153.297 365.084 152.376Q364.722 151.993 364.417 151.569Q362.784 149.301 362.784 145.857Q362.784 142.448 364.396 140.189Q364.71 139.75 365.084 139.354Q365.979 138.413 367.067 137.836Q368.792 136.922 371.002 136.922Q373.226 136.922 374.953 137.848Q376.025 138.423 376.906 139.354Q377.299 139.767 377.625 140.227Q379.22 142.477 379.22 145.857Q379.22 149.272 377.604 151.531Q377.286 151.976 376.906 152.376Q376.038 153.287 374.986 153.855ZM456.32 153.867Q454.584 154.793 452.353 154.793Q450.183 154.793 448.469 153.91Q447.347 153.332 446.42 152.376Q446.002 151.942 445.659 151.456Q444.076 149.216 444.076 145.857Q444.076 142.533 445.638 140.302Q445.99 139.8 446.42 139.354Q447.361 138.378 448.502 137.794Q450.204 136.922 452.353 136.922Q454.563 136.922 456.288 137.836Q457.376 138.413 458.271 139.354Q458.664 139.767 458.99 140.227Q460.585 142.477 460.585 145.857Q460.585 149.272 458.97 151.531Q458.651 151.976 458.271 152.376Q457.389 153.297 456.32 153.867Z" fill="#FFFFFF" fill-opacity="1.000000" fill-rule="evenodd"/>
	<path id="Black friday sale" d="M486.065 92.4227Q487.937 93.2502 490.174 93.2502Q492.323 93.2502 494.111 92.4995C495.303 91.999 496.308 91.2747 497.126 90.3267L495.027 88.3247C493.757 89.7082 492.199 90.3999 490.351 90.3999C489.151 90.3999 488.075 90.1375 487.122 89.6125C486.174 89.0876 485.434 88.3593 484.901 87.4275C484.368 86.4916 484.101 85.4316 484.101 84.2476C484.101 83.0675 484.368 82.0116 484.901 81.0798C485.434 80.144 486.174 79.4136 487.122 78.8887C488.075 78.3638 489.151 78.1013 490.351 78.1013C492.199 78.1013 493.757 78.7849 495.027 80.1521L497.126 78.1746Q496.668 77.6437 496.134 77.2064Q495.236 76.4722 494.123 76.0017C492.939 75.5012 491.631 75.251 490.199 75.251C488.433 75.251 486.838 75.6396 485.413 76.4167Q484.215 77.0672 483.303 77.9981Q482.589 78.7268 482.05 79.6272Q481.745 80.1371 481.516 80.679Q480.824 82.3168 480.824 84.2476C480.824 85.9647 481.228 87.5068 482.038 88.874Q482.556 89.7477 483.24 90.4608Q484.163 91.4215 485.389 92.0906Q485.721 92.2706 486.065 92.4227ZM630.564 92.6765C631.821 93.059 633.125 93.2502 634.476 93.2502Q636.777 93.2502 638.376 92.5544C639.442 92.0865 640.238 91.4619 640.763 90.6807C641.287 89.8953 641.55 89.0185 641.55 88.05C641.55 86.9148 641.253 86.0155 640.659 85.3523C640.069 84.685 639.357 84.1886 638.523 83.863C637.692 83.5375 636.626 83.2242 635.324 82.9231Q633.902 82.5752 633.072 82.3005C632.523 82.1174 632.069 81.8672 631.711 81.5498C631.353 81.2324 631.174 80.8235 631.174 80.323Q631.174 79.8555 631.351 79.4689Q631.58 78.9672 632.108 78.6018C632.734 78.1664 633.691 77.9487 634.976 77.9487C635.758 77.9487 636.565 78.0667 637.399 78.3027C638.234 78.5347 639.033 78.8744 639.798 79.322L640.824 76.8013C640.075 76.3008 639.184 75.9183 638.15 75.6538Q637.336 75.4421 636.507 75.3417Q635.76 75.251 635.001 75.251C633.467 75.251 632.171 75.4849 631.113 75.9529C630.055 76.4167 629.263 77.0454 628.739 77.8389Q628.395 78.3555 628.201 78.9232Q627.951 79.6567 627.951 80.4756C627.951 81.6271 628.246 82.5406 628.836 83.2161Q629.35 83.7973 629.979 84.2016Q630.439 84.4979 630.96 84.6992Q632.199 85.1753 634.201 85.6514C635.149 85.8833 635.898 86.0908 636.447 86.2739C637.001 86.457 637.456 86.7113 637.815 87.0369C638.173 87.3624 638.352 87.7754 638.352 88.2759C638.352 88.9595 638.03 89.5108 637.387 89.9299Q636.423 90.5525 634.476 90.5525C633.426 90.5525 632.38 90.3735 631.339 90.0154Q629.776 89.4722 628.702 88.6238L627.573 91.1506C628.309 91.7854 629.306 92.294 630.564 92.6765ZM444.172 85.4866C443.607 84.746 442.842 84.217 441.877 83.8997C442.577 83.5334 443.126 83.0167 443.525 82.3494C443.924 81.682 444.123 80.915 444.123 80.0483C444.123 78.6323 443.564 77.5215 442.445 76.7158C441.33 75.9061 439.741 75.5012 437.678 75.5012L429.475 75.5012L429.475 93L438.172 93Q441.523 93 443.275 91.761C444.443 90.935 445.027 89.7651 445.027 88.2515C445.027 87.1488 444.742 86.2271 444.172 85.4866ZM451.753 75.5012L448.5 75.5012L448.5 93L460.902 93L460.902 90.2473L451.753 90.2473L451.753 75.5012ZM464.473 93L466.2 88.9473L474.952 88.9473L476.698 93L480.098 93L472.2 75.5012L469.001 75.5012L461.128 93L464.473 93ZM503.503 88.5261L506.274 85.6758L512.451 93L516.247 93L508.453 83.3259L515.802 75.5012L512.152 75.5012L503.503 84.4734L503.503 75.5012L500.25 75.5012L500.25 93L503.503 93L503.503 88.5261ZM528.628 83.5518L528.628 78.2234L538.15 78.2234L538.15 75.5012L525.375 75.5012L525.375 93L528.628 93L528.628 86.2983L537.075 86.2983L537.075 83.5518L528.628 83.5518ZM549.173 87.873L552.75 93L556.247 93L552.225 87.2505C553.426 86.7825 554.345 86.0745 554.984 85.1265C555.627 84.1743 555.948 83.0411 555.948 81.7268C555.948 80.441 555.647 79.3322 555.045 78.4004Q554.88 78.1438 554.689 77.9091Q553.837 76.8649 552.457 76.252Q550.773 75.5012 548.502 75.5012L541.3 75.5012L541.3 93L544.553 93L544.553 87.8975L548.502 87.8975C548.799 87.8975 549.023 87.8893 549.173 87.873ZM562.828 75.5012L559.575 75.5012L559.575 93L562.828 93L562.828 75.5012ZM575.198 75.5012L567.55 75.5012L567.55 93L575.198 93C577.065 93 578.723 92.6379 580.172 91.9136C581.625 91.1893 582.75 90.1639 583.547 88.8374C584.349 87.5109 584.75 85.981 584.75 84.2476C584.75 82.5142 584.349 80.9862 583.547 79.6638C582.75 78.3373 581.625 77.3119 580.172 76.5876C578.723 75.8634 577.065 75.5012 575.198 75.5012ZM588.823 93L590.55 88.9473L599.302 88.9473L601.048 93L604.448 93L596.55 75.5012L593.351 75.5012L585.478 93L588.823 93ZM613.175 93L613.175 86.8232L620.023 75.5012L616.825 75.5012L611.649 84.0278L606.522 75.5012L603.049 75.5012L609.928 86.8721L609.928 93L613.175 93ZM645.648 93L647.375 88.9473L656.127 88.9473L657.873 93L661.273 93L653.375 75.5012L650.176 75.5012L642.303 93L645.648 93ZM666.753 75.5012L663.5 75.5012L663.5 93L675.902 93L675.902 90.2473L666.753 90.2473L666.753 75.5012ZM691.597 93L691.597 90.2778L681.728 90.2778L681.728 85.45L690.175 85.45L690.175 82.7766L681.728 82.7766L681.728 78.2234L691.25 78.2234L691.25 75.5012L678.475 75.5012L678.475 93L691.597 93ZM432.728 82.8743L432.728 78.0525L437.324 78.0525Q439.027 78.0525 439.936 78.6628Q440.304 78.9077 440.523 79.2478Q440.852 79.7555 440.852 80.4756Q440.852 81.1408 440.557 81.627Q440.332 81.9974 439.936 82.2639C439.33 82.6708 438.459 82.8743 437.324 82.8743L432.728 82.8743ZM551.572 79.1511C552.309 79.7493 552.677 80.6078 552.677 81.7268C552.677 82.8417 552.309 83.7043 551.572 84.3147C550.84 84.921 549.765 85.2241 548.349 85.2241L544.553 85.2241L544.553 78.2478L548.349 78.2478Q550.473 78.2478 551.572 79.1511ZM578.432 89.5149C577.46 90.0032 576.333 90.2473 575.051 90.2473L570.803 90.2473L570.803 78.2478L575.051 78.2478C576.333 78.2478 577.46 78.494 578.432 78.9863C579.409 79.4787 580.16 80.1786 580.685 81.0859C581.21 81.9933 581.472 83.0472 581.472 84.2476Q581.472 85.9869 580.737 87.3218Q580.711 87.3688 580.685 87.4153Q580.393 87.92 580.008 88.3391Q579.354 89.0502 578.432 89.5149ZM470.576 78.7483L473.872 86.4021L467.299 86.4021L470.576 78.7483ZM594.926 78.7483L598.222 86.4021L591.649 86.4021L594.926 78.7483ZM651.751 78.7483L655.047 86.4021L648.474 86.4021L651.751 78.7483ZM441.389 89.2442Q440.585 90.4487 437.977 90.4487L432.728 90.4487L432.728 85.4011L437.977 85.4011Q440.581 85.4011 441.387 86.605Q441.749 87.1453 441.749 87.928Q441.749 88.7062 441.389 89.2442Z" fill="#1C2A39" fill-opacity="1.000000" fill-rule="evenodd"/>
</svg>
