<svg width="12.000000" height="15.000000" viewBox="0 0 12 15" fill="none" xmlns="http://www.w3.org/2000/svg" xmlns:xlink="http://www.w3.org/1999/xlink">
	<desc>
			Created with Pixso.
	</desc>
	<defs/>
	<mask id="mask_0_431" fill="white">
		<path id="user" d="M6 8C8.20917 8 10 6.20917 10 4C10 1.79083 8.20917 0 6 0C3.79083 0 2 1.79083 2 4C2 6.20917 3.79083 8 6 8ZM6 7C7.65686 7 9 5.65686 9 4C9 2.34314 7.65686 1 6 1C4.34314 1 3 2.34314 3 4C3 5.65686 4.34314 7 6 7ZM0 13C0 10.7908 1.79083 9 4 9L8 9C10.2092 9 12 10.7908 12 13L12 15L0 15L0 13ZM4 10L8 10C9.65686 10 11 11.3431 11 13L11 14L1 14L1 13C1 11.3431 2.34314 10 4 10Z" clip-rule="evenodd" fill="" fill-opacity="1.000000" fill-rule="evenodd"/>
	</mask>
	<path id="user" d="M6 8C8.20917 8 10 6.20917 10 4C10 1.79083 8.20917 0 6 0C3.79083 0 2 1.79083 2 4C2 6.20917 3.79083 8 6 8ZM6 7C7.65686 7 9 5.65686 9 4C9 2.34314 7.65686 1 6 1C4.34314 1 3 2.34314 3 4C3 5.65686 4.34314 7 6 7ZM0 13C0 10.7908 1.79083 9 4 9L8 9C10.2092 9 12 10.7908 12 13L12 15L0 15L0 13ZM4 10L8 10C9.65686 10 11 11.3431 11 13L11 14L1 14L1 13C1 11.3431 2.34314 10 4 10Z" clip-rule="evenodd" fill="#1C2A39" fill-opacity="1.000000" fill-rule="evenodd" mask="url(#mask_0_431)"/>
	<path id="user" d="M6 9L4 9C3.55881 9 3.13431 9.07142 2.73743 9.20334C2.55146 9.26515 2.37155 9.34024 2.19884 9.42749C1.83399 9.6118 1.50121 9.85035 1.21112 10.1326C1.18457 10.1584 1.15838 10.1846 1.13255 10.2111C0.850378 10.5012 0.611843 10.8339 0.427544 11.1987C0.339817 11.3724 0.264378 11.5533 0.202371 11.7403C0.0710744 12.1364 0 12.5599 0 13L0 15L12 15L12 13C12 12.5599 11.9289 12.1364 11.7976 11.7404C11.7356 11.5533 11.6602 11.3725 11.5725 11.1988C11.3882 10.834 11.1496 10.5012 10.8674 10.2111C10.8416 10.1846 10.8154 10.1584 10.7889 10.1326C10.4988 9.85036 10.166 9.6118 9.80117 9.4275C9.62755 9.33979 9.44666 9.26436 9.25965 9.20237C8.8636 9.07107 8.4401 9 8 9L6 9ZM1 14L11 14L11 13C11 11.3431 9.65686 10 8 10L4 10C2.34314 10 1 11.3431 1 13L1 14ZM4.74034 7.79763C5.13639 7.92893 5.55989 8 6 8C6.44011 8 6.86361 7.92893 7.25966 7.79763C7.44671 7.73562 7.62763 7.66018 7.80129 7.57244C8.16609 7.38815 8.49882 7.14962 8.78888 6.86745C8.81543 6.84162 8.84162 6.81543 8.86745 6.78888C9.14964 6.49879 9.3882 6.16602 9.5725 5.80117C9.65975 5.62845 9.73485 5.44855 9.79666 5.26257C9.92858 4.86569 10 4.44119 10 4C10 3.55881 9.92858 3.13431 9.79666 2.73743C9.73485 2.55146 9.65976 2.37155 9.57251 2.19884C9.3882 1.83399 9.14965 1.50121 8.86745 1.21112C8.84162 1.18457 8.81543 1.15838 8.78888 1.13255C8.49881 0.850378 8.16607 0.611843 7.80126 0.427544C7.62807 0.340045 7.44764 0.264771 7.26112 0.202855C6.86465 0.0712491 6.44065 0 6 0C5.55935 0 5.13535 0.0712491 4.73888 0.202855C4.55236 0.26477 4.37194 0.340042 4.19874 0.42754C3.83393 0.61184 3.50119 0.850376 3.21112 1.13255C3.18457 1.15838 3.15838 1.18457 3.13255 1.21112C2.85038 1.50119 2.61184 1.83393 2.42754 2.19874C2.33993 2.37216 2.26457 2.55283 2.20261 2.73961C2.07116 3.13587 2 3.55962 2 4C2 4.44065 2.07125 4.86465 2.20286 5.26112C2.26477 5.44764 2.34005 5.62807 2.42755 5.80127C2.61185 6.16608 2.85038 6.49881 3.13255 6.78888C3.15838 6.81543 3.18457 6.84162 3.21112 6.86745C3.50118 7.14962 3.83392 7.38815 4.19872 7.57245C4.37238 7.66018 4.5533 7.73562 4.74034 7.79763ZM3 4C3 2.34314 4.34314 1 6 1C7.65686 1 9 2.34314 9 4C9 5.65686 7.65686 7 6 7C4.34314 7 3 5.65686 3 4Z" clip-rule="evenodd" fill="#1C2A39" fill-opacity="1.000000" fill-rule="evenodd"/>
</svg>
